<svg xmlns="http://www.w3.org/2000/svg" viewBox="0 0 160 120" fill="none">
  <!-- Icosahedral capsid -->
  <polygon points="80,12 110,28 120,60 100,88 60,88 40,60 50,28" stroke="#3B82F6" stroke-width="2" fill="#3B82F618"/>
  <polygon points="80,12 110,28 80,45" stroke="#3B82F6" stroke-width="1.2" fill="#3B82F630" opacity="0.7"/>
  <polygon points="80,45 110,28 120,60" stroke="#3B82F6" stroke-width="1.2" fill="#3B82F620" opacity="0.7"/>
  <polygon points="80,45 120,60 100,88" stroke="#3B82F6" stroke-width="1.2" fill="#3B82F628" opacity="0.7"/>
  <polygon points="80,45 100,88 60,88" stroke="#3B82F6" stroke-width="1.2" fill="#3B82F618" opacity="0.7"/>
  <polygon points="80,45 60,88 40,60" stroke="#3B82F6" stroke-width="1.2" fill="#3B82F625" opacity="0.7"/>
  <polygon points="80,45 40,60 50,28" stroke="#3B82F6" stroke-width="1.2" fill="#3B82F620" opacity="0.7"/>
  <!-- Vertices (pentons) -->
  <circle cx="80" cy="12" r="4" fill="#3B82F6"/>
  <circle cx="110" cy="28" r="4" fill="#3B82F6"/>
  <circle cx="120" cy="60" r="4" fill="#3B82F6"/>
  <circle cx="100" cy="88" r="4" fill="#3B82F6"/>
  <circle cx="60" cy="88" r="4" fill="#3B82F6"/>
  <circle cx="40" cy="60" r="4" fill="#3B82F6"/>
  <circle cx="50" cy="28" r="4" fill="#3B82F6"/>
  <!-- Fiber projections -->
  <line x1="80" y1="12" x2="80" y2="4" stroke="#3B82F6" stroke-width="1.5"/>
  <line x1="110" y1="28" x2="116" y2="22" stroke="#3B82F6" stroke-width="1.5"/>
  <line x1="120" y1="60" x2="128" y2="60" stroke="#3B82F6" stroke-width="1.5"/>
  <circle cx="80" cy="3" r="2" fill="#3B82F6"/>
  <circle cx="117" cy="21" r="2" fill="#3B82F6"/>
  <circle cx="129" cy="60" r="2" fill="#3B82F6"/>
  <!-- Label -->
  <text x="80" y="108" font-family="system-ui,sans-serif" font-size="11" font-weight="600" fill="#3B82F6" text-anchor="middle">Adenovirus</text>
</svg>
