<svg xmlns="http://www.w3.org/2000/svg" viewBox="0 0 160 120" fill="none">
  <!-- Enveloped spherical particle -->
  <circle cx="80" cy="55" r="36" fill="#3B82F618" stroke="#3B82F6" stroke-width="2"/>
  <!-- Surface spikes (hemagglutinin) -->
  <line x1="80" y1="19" x2="80" y2="9" stroke="#3B82F6" stroke-width="2"/>
  <circle cx="80" cy="8" r="3.5" fill="#3B82F6"/>
  <line x1="102" y1="26" x2="109" y2="18" stroke="#3B82F6" stroke-width="2"/>
  <circle cx="111" cy="16" r="3.5" fill="#3B82F6"/>
  <line x1="116" y1="46" x2="125" y2="42" stroke="#3B82F6" stroke-width="2"/>
  <circle cx="127" cy="40" r="3.5" fill="#3B82F6"/>
  <line x1="116" y1="65" x2="126" y2="68" stroke="#3B82F6" stroke-width="2"/>
  <circle cx="128" cy="70" r="3.5" fill="#3B82F6"/>
  <line x1="58" y1="26" x2="51" y2="18" stroke="#3B82F6" stroke-width="2"/>
  <circle cx="49" cy="16" r="3.5" fill="#3B82F6"/>
  <line x1="44" y1="46" x2="35" y2="42" stroke="#3B82F6" stroke-width="2"/>
  <circle cx="33" cy="40" r="3.5" fill="#3B82F6"/>
  <line x1="44" y1="65" x2="34" y2="68" stroke="#3B82F6" stroke-width="2"/>
  <circle cx="32" cy="70" r="3.5" fill="#3B82F6"/>
  <line x1="80" y1="91" x2="80" y2="101" stroke="#3B82F6" stroke-width="2"/>
  <circle cx="80" cy="103" r="3.5" fill="#3B82F6"/>
  <!-- RNA segments inside -->
  <ellipse cx="80" cy="55" rx="16" ry="12" fill="#3B82F630" stroke="#3B82F6" stroke-width="1" stroke-dasharray="3 2"/>
  <!-- Label -->
  <text x="80" y="116" font-family="system-ui,sans-serif" font-size="11" font-weight="600" fill="#3B82F6" text-anchor="middle">Influenza B</text>
</svg>
