<svg xmlns="http://www.w3.org/2000/svg" width="400" height="300" viewBox="0 0 400 300">
  <defs>
    <radialGradient id="bg" cx="50%" cy="50%" r="60%">
      <stop offset="0%" stop-color="#6a1b9a"/>
      <stop offset="100%" stop-color="#4a148c"/>
    </radialGradient>
  </defs>
  <rect width="400" height="300" fill="url(#bg)"/>
  <circle cx="200" cy="140" r="80" fill="#6a1b9a" fill-opacity="0.7" stroke="white" stroke-width="2"/>
  <line x1="280.0" y1="150.0" x2="310.0" y2="150.0" stroke="white" stroke-width="3" stroke-linecap="round"/>
  <circle cx="315.0" cy="150.0" r="6" fill="white" fill-opacity="0.8"/>
  <line x1="269.3" y1="190.0" x2="295.3" y2="205.0" stroke="white" stroke-width="3" stroke-linecap="round"/>
  <circle cx="299.6" cy="207.5" r="6" fill="white" fill-opacity="0.8"/>
  <line x1="240.0" y1="219.3" x2="255.0" y2="245.3" stroke="white" stroke-width="3" stroke-linecap="round"/>
  <circle cx="257.5" cy="249.6" r="6" fill="white" fill-opacity="0.8"/>
  <line x1="200.0" y1="230.0" x2="200.0" y2="260.0" stroke="white" stroke-width="3" stroke-linecap="round"/>
  <circle cx="200.0" cy="265.0" r="6" fill="white" fill-opacity="0.8"/>
  <line x1="160.0" y1="219.3" x2="145.0" y2="245.3" stroke="white" stroke-width="3" stroke-linecap="round"/>
  <circle cx="142.5" cy="249.6" r="6" fill="white" fill-opacity="0.8"/>
  <line x1="130.7" y1="190.0" x2="104.7" y2="205.0" stroke="white" stroke-width="3" stroke-linecap="round"/>
  <circle cx="100.4" cy="207.5" r="6" fill="white" fill-opacity="0.8"/>
  <line x1="120.0" y1="150.0" x2="90.0" y2="150.0" stroke="white" stroke-width="3" stroke-linecap="round"/>
  <circle cx="85.0" cy="150.0" r="6" fill="white" fill-opacity="0.8"/>
  <line x1="130.7" y1="110.0" x2="104.7" y2="95.0" stroke="white" stroke-width="3" stroke-linecap="round"/>
  <circle cx="100.4" cy="92.5" r="6" fill="white" fill-opacity="0.8"/>
  <line x1="160.0" y1="80.7" x2="145.0" y2="54.7" stroke="white" stroke-width="3" stroke-linecap="round"/>
  <circle cx="142.5" cy="50.4" r="6" fill="white" fill-opacity="0.8"/>
  <line x1="200.0" y1="70.0" x2="200.0" y2="40.0" stroke="white" stroke-width="3" stroke-linecap="round"/>
  <circle cx="200.0" cy="35.0" r="6" fill="white" fill-opacity="0.8"/>
  <line x1="240.0" y1="80.7" x2="255.0" y2="54.7" stroke="white" stroke-width="3" stroke-linecap="round"/>
  <circle cx="257.5" cy="50.4" r="6" fill="white" fill-opacity="0.8"/>
  <line x1="269.3" y1="110.0" x2="295.3" y2="95.0" stroke="white" stroke-width="3" stroke-linecap="round"/>
  <circle cx="299.6" cy="92.5" r="6" fill="white" fill-opacity="0.8"/>
  <circle cx="200" cy="140" r="50" fill="#4a148c" fill-opacity="0.9"/>
  <circle cx="185" cy="125" r="15" fill="white" fill-opacity="0.15"/>
  <text x="200" y="260" font-family="Arial,sans-serif" font-size="20" font-weight="bold"
        fill="white" text-anchor="middle">Marburg</text>
</svg>